ffmpeg version 2.7.1 Copyright (c) 2000-2015 the FFmpeg developers
  built with gcc 4.6.4 (Marvell GCC release 20150204-c4af733b 64K MAXPAGESIZE ALIGN CVE-2015-0235)
  configuration: --prefix=/usr --incdir='${prefix}/include/ffmpeg' --arch=arm --target-os=linux --cross-prefix=/usr/local/arm-marvell-linux-gnueabi/bin/arm-marvell-linux-gnueabi- --enable-cross-compile --enable-optimizations --enable-pic --enable-gpl --enable-shared --disable-static --enable-version3 --enable-nonfree --enable-libfaac --enable-encoders --enable-pthreads --disable-bzlib --disable-protocol=rtp --disable-muxer=image2 --disable-muxer=image2pipe --disable-swscale-alpha --disable-ffserver --disable-ffplay --disable-devices --disable-bzlib --disable-altivec --enable-libopencore-amrnb --enable-libopencore-amrwb --enable-libmp3lame --disable-vaapi --disable-decoder=amrnb --disable-encoder=zmbv --disable-encoder=dca --disable-encoder=ac3 --disable-encoder=ac3_fixed --disable-encoder=eac3 --disable-decoder=dca --disable-decoder=eac3 --disable-decoder=truehd --cc=/usr/local/arm-marvell-linux-gnueabi/bin/arm-marvell-linux-gnueabi-ccache-gcc
  libavutil      54. 27.100 / 54. 27.100
  libavcodec     56. 41.100 / 56. 41.100
  libavformat    56. 36.100 / 56. 36.100
  libavdevice    56.  4.100 / 56.  4.100
  libavfilter     5. 16.101 /  5. 16.101
  libswscale      3.  1.101 /  3.  1.101
  libswresample   1.  2.100 /  1.  2.100
  libpostproc    53.  3.100 / 53.  3.100
Guessed Channel Layout for  Input Stream #0.1 : mono
Input #0, mov,mp4,m4a,3gp,3g2,mj2, from '/volume1/Experiments/XS-FACE/final-set-materials/final-videos/headcam-final/12-months/XS_1216_objs.mov':
  Metadata:
    major_brand     : qt  
    minor_version   : 537199360
    compatible_brands: qt  
    creation_time   : 2013-05-29 22:00:57
  Duration: 00:15:44.80, start: 0.000743, bitrate: 5602 kb/s
    Stream #0:0(eng): Video: mjpeg (dmb1 / 0x31626D64), yuvj422p(pc, bt470bg/unknown/unknown), 640x480, 5537 kb/s, 29.97 fps, 29.97 tbr, 1000k tbn, 1000k tbc (default)
    Metadata:
      rotate          : 180
      creation_time   : 2013-05-29 22:00:57
      handler_name    : Apple Alias Data Handler
      encoder         : Motion JPEG OpenDML
    Side data:
      displaymatrix: rotation of -180.00 degrees
    Stream #0:1(eng): Audio: pcm_u8 (raw  / 0x20776172), 8000 Hz, 1 channels, u8, 64 kb/s (default)
    Metadata:
      creation_time   : 2013-05-29 22:00:57
      handler_name    : Apple Alias Data Handler
At least one output file must be specified
